<svg id="Layer_1" data-name="Layer 1" xmlns="http://www.w3.org/2000/svg" xmlns:xlink="http://www.w3.org/1999/xlink" viewBox="0 0 61.98 27.68"><defs><style>.cls-1{fill:none;}.cls-2{fill:#00cbcb;}.cls-3{clip-path:url(#clip-path);}.cls-4{clip-path:url(#clip-path-2);}.cls-5{clip-path:url(#clip-path-3);}.cls-6{clip-path:url(#clip-path-4);}</style><clipPath id="clip-path" transform="translate(-0.51 -17.66)"><path class="cls-1" d="M29.06,33.75a.88.88,0,0,1-.75-.42l-1.43-2.64H25.29a.78.78,0,0,1-.76-.8v0a.81.81,0,0,1,.76-.71h2.08a.85.85,0,0,1,.75.43L29,31.27l2.62-4.74a.85.85,0,0,1,.69-.43.88.88,0,0,1,.75.34l3.08,4.24h1.65a.78.78,0,0,1,.77.77.77.77,0,0,1-.77.76h-2.1a.82.82,0,0,1-.69-.34L32.5,28.38l-2.7,4.95A.85.85,0,0,1,29.06,33.75Z"/></clipPath><clipPath id="clip-path-2" transform="translate(-0.51 -17.66)"><rect class="cls-1" x="-420.3" y="-365.9" width="897.58" height="1601.2"/></clipPath><clipPath id="clip-path-3" transform="translate(-0.51 -17.66)"><path class="cls-1" d="M29.06,40.72a.87.87,0,0,1-.75-.44l-1.43-2.64H25.31a.78.78,0,0,1-.76-.8v0a.8.8,0,0,1,.76-.7h2.08a.82.82,0,0,1,.75.42l.92,1.69,2.61-4.74a.88.88,0,0,1,1.14-.34.84.84,0,0,1,.31.25l3.09,4.24h1.64a.81.81,0,0,1,.76.82v0a.84.84,0,0,1-.76.7H35.73a.84.84,0,0,1-.69-.35L32.5,35.34l-2.69,4.94A.86.86,0,0,1,29.06,40.72Z"/></clipPath><clipPath id="clip-path-4" transform="translate(-0.51 -17.66)"><rect class="cls-1" x="-420.3" y="-358.94" width="897.58" height="1601.2"/></clipPath></defs><path class="cls-2" d="M14.5,33.41H8.88a7.81,7.81,0,0,0-8,6.47L.51,44.21a1.08,1.08,0,0,0,1,1.13H21.63a1.1,1.1,0,0,0,1.12-1.06h0v-.08l-.26-4.32A7.86,7.86,0,0,0,14.5,33.41Z" transform="translate(-0.51 -17.66)"/><ellipse class="cls-2" cx="11.18" cy="6.95" rx="7.58" ry="6.95"/><path class="cls-2" d="M62.22,39.88a7.77,7.77,0,0,0-8-6.47H48.63a7.84,7.84,0,0,0-8,6.47l-.39,4.33a1.07,1.07,0,0,0,1,1.12H61.38a1.1,1.1,0,0,0,1.11-1.07h0v-.07Z" transform="translate(-0.51 -17.66)"/><ellipse class="cls-2" cx="50.93" cy="6.95" rx="7.58" ry="6.95"/><g class="cls-3"><g class="cls-4"><rect class="cls-2" x="20.85" y="5.59" width="20.41" height="13.35"/></g></g><g class="cls-5"><g class="cls-6"><rect class="cls-2" x="20.85" y="12.56" width="20.41" height="13.35"/></g></g></svg>