<svg id="Layer_1" data-name="Layer 1" xmlns="http://www.w3.org/2000/svg" xmlns:xlink="http://www.w3.org/1999/xlink" viewBox="0 0 42.11 38.1"><defs><style>.cls-1{fill:none;}.cls-2{clip-path:url(#clip-path);}.cls-3{clip-path:url(#clip-path-2);}.cls-4{fill:#00cbcb;}.cls-5{clip-path:url(#clip-path-3);}</style><clipPath id="clip-path" transform="translate(-3.94 -5.95)"><path class="cls-1" d="M25.67,31a1.35,1.35,0,0,1-1.2-.74l-2.3-4.61H19.65a1.34,1.34,0,1,1,0-2.68H23a1.35,1.35,0,0,1,1.2.74l1.48,3,4.15-8.31a1.35,1.35,0,0,1,1.12-.74,1.33,1.33,0,0,1,1.19.6l5,7.43h2.63a1.34,1.34,0,1,1,0,2.68H36.37a1.35,1.35,0,0,1-1.11-.6l-4.07-6.11-4.32,8.64A1.35,1.35,0,0,1,25.67,31Z"/></clipPath><clipPath id="clip-path-2" transform="translate(-3.94 -5.95)"><rect class="cls-1" x="-695.26" y="-668.85" width="1440" height="2804"/></clipPath><clipPath id="clip-path-3" transform="translate(-3.94 -5.95)"><path class="cls-1" d="M33,29.23,31.52,27l-2.26,4.52a4,4,0,0,1-7.18,0l-1.57-3.13h-.86a4,4,0,1,1,0-8H23a4,4,0,0,1,2.46.83l2-4A4,4,0,0,1,30.77,15a4,4,0,0,1,3.59,1.79l3.71,5.55a16.08,16.08,0,0,0,.31-3.14A8.3,8.3,0,0,0,23.66,14,8.3,8.3,0,0,0,8.94,19.17c0,12.17,13.67,19.46,14.26,19.76a.93.93,0,0,0,.46.12,1.12,1.12,0,0,0,.47-.11,34.15,34.15,0,0,0,10.12-8.55A4.08,4.08,0,0,1,33,29.23Z"/></clipPath></defs><g class="cls-2"><g class="cls-3"><rect class="cls-4" x="9.37" y="6.69" width="32.75" height="23.38"/></g></g><g class="cls-5"><g class="cls-3"><rect class="cls-4" width="39.44" height="38.1"/></g></g></svg>