<svg id="Layer_1" data-name="Layer 1" xmlns="http://www.w3.org/2000/svg" xmlns:xlink="http://www.w3.org/1999/xlink" viewBox="0 0 101.45 113.31"><defs><style>.cls-1{fill:none;}.cls-2{fill:#00cbcb;}.cls-3{clip-path:url(#clip-path);}.cls-4{clip-path:url(#clip-path-2);}.cls-5{clip-path:url(#clip-path-3);}</style><clipPath id="clip-path" transform="translate(0 -1.63)"><path class="cls-1" d="M62.54,49.48a2.56,2.56,0,0,1-2.29-1.41l-4.4-8.8h-4.8a2.56,2.56,0,1,1,0-5.11h6.38a2.58,2.58,0,0,1,2.29,1.41l2.82,5.65,7.93-15.86a2.55,2.55,0,0,1,4.41-.28l9.46,14.19h5a2.55,2.55,0,1,1,0,5.1H83a2.54,2.54,0,0,1-2.12-1.13L73.07,31.58,64.82,48.07A2.53,2.53,0,0,1,62.54,49.48Z"/></clipPath><clipPath id="clip-path-2" transform="translate(0 -1.63)"><rect class="cls-1" x="-1313.5" y="-1286.37" width="2748.55" height="5352.03"/></clipPath><clipPath id="clip-path-3" transform="translate(0 -1.63)"><path class="cls-1" d="M76.6,46.07l-2.9-4.34-4.31,8.62a7.67,7.67,0,0,1-13.71,0l-3-6H51.05a7.66,7.66,0,1,1,0-15.32h6.38a7.64,7.64,0,0,1,4.68,1.59l3.79-7.57a7.66,7.66,0,0,1,13.23-.82L86.2,32.86a31,31,0,0,0,.6-6A15.83,15.83,0,0,0,58.71,17a15.84,15.84,0,0,0-28.1,9.87c0,23.24,26.1,37.16,27.21,37.74a2,2,0,0,0,.89.22,2,2,0,0,0,.89-.22A65,65,0,0,0,78.92,48.28,7.63,7.63,0,0,1,76.6,46.07Z"/></clipPath></defs><path class="cls-2" d="M3.54,108.73A10.67,10.67,0,0,1,2,107,10.88,10.88,0,0,1,4.61,91.81l16.9-11.94a20.45,20.45,0,0,1,14.57-3.56l1.58.22a100.74,100.74,0,0,0,12.87.92l15.61.11A5.61,5.61,0,0,1,71.71,83h0a5.36,5.36,0,0,1-5.14,5.54l-16.47.63,4.42,1.47a27.17,27.17,0,0,0,25.23-4.31l6.55-5.08a6.27,6.27,0,0,1,8.76,1.07,6.39,6.39,0,0,1-.92,8.87L83.8,99.8a45.77,45.77,0,0,1-32,10.58l-7.11-.4a47.66,47.66,0,0,0-21.1,3.62A17.17,17.17,0,0,1,5.4,110.44Z" transform="translate(0 -1.63)"/><g class="cls-3"><g class="cls-4"><rect class="cls-2" x="38.95" y="12.77" width="62.5" height="44.63"/></g></g><g class="cls-5"><g class="cls-4"><rect class="cls-2" x="21.07" width="75.27" height="72.72"/></g></g></svg>