<svg id="Layer_1" data-name="Layer 1" xmlns="http://www.w3.org/2000/svg" viewBox="0 0 50 61.96"><defs><style>.cls-1{fill:#00cbcb;}</style></defs><path class="cls-1" d="M53.8,1H30.38a3.76,3.76,0,0,0-3.74,3.74V24.45a3.76,3.76,0,0,0,3.74,3.75h3.47v6.23a1.42,1.42,0,0,0,1.49,1.33h0a1.48,1.48,0,0,0,.85-.34l7.49-7.19h10a3.79,3.79,0,0,0,3.75-3.75V4.78A3.71,3.71,0,0,0,53.8,1ZM51.39,15.89h-3.1L46,21.54a1.32,1.32,0,0,1-1.21.77,1.42,1.42,0,0,1-1.2-.77l-4.18-10L37.89,15a1.3,1.3,0,0,1-1.2.78h-4a1.28,1.28,0,1,1,0-2.56h3.12l2.33-5.65a1.31,1.31,0,0,1,1.2-.78,1.41,1.41,0,0,1,1.21.78l4.24,10.05,1.49-3.54a1.32,1.32,0,0,1,1.23-.78h4a1.28,1.28,0,0,1,1.27,1.26h0a1.28,1.28,0,0,1-1.3,1.27h-.08Z" transform="translate(-7.48 -1.04)"/><path class="cls-1" d="M23.45,48H17a9.19,9.19,0,0,0-9.1,8.16l-.45,5.46A1.3,1.3,0,0,0,8.67,63h22.9a1.31,1.31,0,0,0,1.27-1.36h0v-.06l-.29-5.46A9.25,9.25,0,0,0,23.45,48Z" transform="translate(-7.48 -1.04)"/><circle class="cls-1" cx="12.69" cy="36.49" r="8.21"/></svg>