<svg xmlns="http://www.w3.org/2000/svg" width="50.597" height="92.761" viewBox="0 0 50.597 92.761">
  <g id="Health_Hub" data-name="Health Hub" transform="translate(-12 -2)">
    <path id="Path_10" data-name="Path 10" d="M16.216,2A4.207,4.207,0,0,0,12,6.216V90.545a4.207,4.207,0,0,0,4.216,4.216H58.381A4.207,4.207,0,0,0,62.6,90.545V6.216A4.207,4.207,0,0,0,58.381,2Zm0,2.108H23.6q.052,0,.1,0a1.054,1.054,0,0,1,.107.016q.05.01.1.025a1.508,1.508,0,0,1,.2.082q.045.027.086.058a1.055,1.055,0,0,1,.086.062q.039.035.074.074t.07.078a1.055,1.055,0,0,1,.062.086q.029.044.054.091t.041.095a1.439,1.439,0,0,1,.058.206q.009.051.012.1t0,.074V6.216a2.1,2.1,0,0,0,2.108,2.108H47.84a2.1,2.1,0,0,0,2.108-2.108V5.162q0-.052,0-.1a.968.968,0,0,1,.078-.309q.02-.048.045-.095t.058-.086a1.053,1.053,0,0,1,.062-.086q.033-.041.07-.078t.082-.066q.04-.033.082-.062a1.054,1.054,0,0,1,.095-.054q.046-.025.095-.045t.1-.033q.051-.013.1-.021a1.054,1.054,0,0,1,.107-.012l.074,0h7.379a2.1,2.1,0,0,1,2.108,2.108V90.545a2.1,2.1,0,0,1-2.108,2.108H16.216a2.1,2.1,0,0,1-2.108-2.108V6.216A2.1,2.1,0,0,1,16.216,4.108Z" transform="translate(0)" fill="#0b0249"/>
    <path id="Path_11" data-name="Path 11" d="M19.5,43h9a.5.5,0,0,1,0,1h-9a.5.5,0,0,1,0-1Z" transform="translate(13.299 46.761)" fill="#0b0249"/>
  </g>
</svg>
