<svg id="Layer_1" data-name="Layer 1" xmlns="http://www.w3.org/2000/svg" viewBox="0 0 65.83 100.19"><defs><style>.cls-1{fill:#00cbcb;}</style></defs><path class="cls-1" d="M50,8.35a33,33,0,0,0-32.92,32.9c0,9.13,4.78,17.73,8.62,24.59,2,3.67,4.09,7.42,4.32,9.51V88.57a20,20,0,0,0,40,0V75.35c.23-2,2.3-5.76,4.32-9.37,3.84-6.92,8.62-15.53,8.62-24.59a33,33,0,0,0-32.86-33Zm0,76.3a31.77,31.77,0,0,0,12.29-2.43v3.33A22.06,22.06,0,0,1,50,89a22.06,22.06,0,0,1-12.29-3.43V82.22A31.77,31.77,0,0,0,50,84.65Zm0,16.21a12.29,12.29,0,0,1-10.51-6,32.35,32.35,0,0,0,21,0A12.29,12.29,0,0,1,50,100.86Zm17.58-38.7c-2.34,4.22-4.4,7.9-5.07,11.21A21.86,21.86,0,0,1,50,77a21.86,21.86,0,0,1-12.51-3.59c-.68-3.31-2.73-7-5.07-11.21-3.58-6.45-7.68-13.83-7.68-20.91a25.23,25.23,0,0,1,50.46,0C75.23,48.4,71.16,55.71,67.58,62.16Z" transform="translate(-17.08 -8.35)"/></svg>