<svg xmlns="http://www.w3.org/2000/svg" width="50.597" height="92.761" viewBox="0 0 50.597 92.761">
  <g id="Maarket_Place" data-name="Maarket Place" transform="translate(-140.201 -82.119)">
    <g id="Group_43" data-name="Group 43" transform="translate(154 122.5)">
      <path id="Path_15" data-name="Path 15" d="M2.264,8.823A1,1,0,0,1,3,8.5H21a1,1,0,0,1,1,1.083l-.847,10.166A3,3,0,0,1,18.16,22.5H5.84a3,3,0,0,1-2.99-2.751L2,9.583A1,1,0,0,1,2.264,8.823ZM4.087,10.5l.757,9.083a1,1,0,0,0,1,.917H18.16a1,1,0,0,0,1-.917l.757-9.083Z" fill="#4ec7c5" fill-rule="evenodd"/>
      <path id="Path_16" data-name="Path 16" d="M7,7.5a3,3,0,0,1,3-3h4a3,3,0,0,1,3,3v2a1,1,0,0,1-1,1H8a1,1,0,0,1-1-1Zm3-1a1,1,0,0,0-1,1v1h6v-1a1,1,0,0,0-1-1Z" fill="#4ec7c5" fill-rule="evenodd"/>
      <path id="Path_17" data-name="Path 17" d="M8.5,5a3.5,3.5,0,0,1,7,0v.5a1,1,0,0,1-1,1h-5a1,1,0,0,1-1-1Zm2.085-.5h2.829a1.5,1.5,0,0,0-2.829,0Zm8.054-.768,3,2.5A1,1,0,0,1,22,7V9.5H20V7.468l-2.64-2.2Zm-13.279,0-3,2.5A1,1,0,0,0,2,7V9.5H4V7.468l2.64-2.2Z" fill="#4ec7c5" fill-rule="evenodd"/>
    </g>
    <g id="Group_44" data-name="Group 44" transform="translate(128.201 80.119)">
      <path id="Path_10" data-name="Path 10" d="M16.216,2A4.207,4.207,0,0,0,12,6.216V90.545a4.207,4.207,0,0,0,4.216,4.216H58.381A4.207,4.207,0,0,0,62.6,90.545V6.216A4.207,4.207,0,0,0,58.381,2Zm0,2.108H23.6q.052,0,.1,0a1.054,1.054,0,0,1,.107.016q.05.01.1.025a1.508,1.508,0,0,1,.2.082q.045.027.086.058a1.055,1.055,0,0,1,.086.062q.039.035.074.074t.07.078a1.055,1.055,0,0,1,.062.086q.029.044.054.091t.041.095a1.439,1.439,0,0,1,.058.206q.009.051.012.1t0,.074V6.216a2.1,2.1,0,0,0,2.108,2.108H47.84a2.1,2.1,0,0,0,2.108-2.108V5.162q0-.052,0-.1a.968.968,0,0,1,.078-.309q.02-.048.045-.095t.058-.086a1.053,1.053,0,0,1,.062-.086q.033-.041.07-.078t.082-.066q.04-.033.082-.062a1.054,1.054,0,0,1,.095-.054q.046-.025.095-.045t.1-.033q.051-.013.1-.021a1.054,1.054,0,0,1,.107-.012l.074,0h7.379a2.1,2.1,0,0,1,2.108,2.108V90.545a2.1,2.1,0,0,1-2.108,2.108H16.216a2.1,2.1,0,0,1-2.108-2.108V6.216A2.1,2.1,0,0,1,16.216,4.108Z" transform="translate(0)" fill="#0b0249"/>
      <path id="Path_11" data-name="Path 11" d="M19.5,43h9a.5.5,0,0,1,0,1h-9a.5.5,0,0,1,0-1Z" transform="translate(13.299 46.761)" fill="#0b0249"/>
    </g>
  </g>
</svg>
