<svg xmlns="http://www.w3.org/2000/svg" width="62.458" height="99.932" viewBox="0 0 62.458 99.932">
  <path id="Icon_awesome-mobile-alt" data-name="Icon awesome-mobile-alt" d="M53.089,0H9.369A9.371,9.371,0,0,0,0,9.369V90.563a9.371,9.371,0,0,0,9.369,9.369h43.72a9.371,9.371,0,0,0,9.369-9.369V9.369A9.371,9.371,0,0,0,53.089,0ZM31.229,93.686a6.246,6.246,0,1,1,6.246-6.246A6.239,6.239,0,0,1,31.229,93.686Zm21.86-21.079a2.349,2.349,0,0,1-2.342,2.342H11.711a2.349,2.349,0,0,1-2.342-2.342v-60.9a2.349,2.349,0,0,1,2.342-2.342H50.747a2.349,2.349,0,0,1,2.342,2.342Z" fill="#0b0249"/>
</svg>
