<svg id="Layer_1" data-name="Layer 1" xmlns="http://www.w3.org/2000/svg" xmlns:xlink="http://www.w3.org/1999/xlink" viewBox="0 0 42.11 42.11"><defs><style>.cls-1{fill:none;}.cls-2{clip-path:url(#clip-path);}.cls-3{clip-path:url(#clip-path-2);}.cls-4{fill:#00cbcb;}.cls-5{clip-path:url(#clip-path-3);}.cls-6{clip-path:url(#clip-path-5);}</style><clipPath id="clip-path" transform="translate(-3.94 -3.94)"><path class="cls-1" d="M28.35,41.06a1.36,1.36,0,0,1-1.12-.6L25,37H22.32a1.34,1.34,0,0,1,0-2.67h3.35a1.33,1.33,0,0,1,1.11.59l1.4,2.1,3-6A1.34,1.34,0,0,1,33.51,31l3.62,6h2.59a1.34,1.34,0,0,1,0,2.68H36.37a1.33,1.33,0,0,1-1.14-.65l-2.76-4.6-2.93,5.85a1.32,1.32,0,0,1-1.11.73Z"/></clipPath><clipPath id="clip-path-2" transform="translate(-3.94 -3.94)"><rect class="cls-1" x="-1015.26" y="-669.26" width="1440" height="2804"/></clipPath><clipPath id="clip-path-3" transform="translate(-3.94 -3.94)"><circle class="cls-1" cx="20.99" cy="15.63" r="6.69"/></clipPath><clipPath id="clip-path-5" transform="translate(-3.94 -3.94)"><path class="cls-1" d="M18.31,35.7a4,4,0,0,1,4-4h3.35a4.1,4.1,0,0,1,1.95.5l1.15-2.3a4,4,0,0,1,3-2.13A6.68,6.68,0,0,0,26.34,25H15.63a6.7,6.7,0,0,0-6.69,6.69V36a1,1,0,0,0,1,1h8.61A3.94,3.94,0,0,1,18.31,35.7Z"/></clipPath></defs><g class="cls-2"><g class="cls-3"><rect class="cls-4" x="12.04" y="21.41" width="30.07" height="20.7"/></g></g><g class="cls-5"><g class="cls-3"><rect class="cls-4" x="5.35" width="23.38" height="23.38"/></g></g><g class="cls-6"><g class="cls-3"><rect class="cls-4" y="16.06" width="32.79" height="22.04"/></g></g></svg>