<svg id="Layer_1" data-name="Layer 1" xmlns="http://www.w3.org/2000/svg" xmlns:xlink="http://www.w3.org/1999/xlink" viewBox="0 0 42.11 36.78"><defs><style>.cls-1{fill:none;}.cls-2{clip-path:url(#clip-path);}.cls-3{clip-path:url(#clip-path-2);}.cls-4{fill:#00cbcb;}.cls-5{clip-path:url(#clip-path-3);}</style><clipPath id="clip-path" transform="translate(-3.94 -6.61)"><path class="cls-1" d="M38.71,11.63H14.3v2.68H38.38V29H11.62V14.31H14.3v-2.7l-3,0A2.35,2.35,0,0,0,8.94,14V32a2.35,2.35,0,0,0,2.35,2.34H21.53a6.06,6.06,0,0,1-1.69,2.87.67.67,0,0,0,.48,1.14h9.36A.67.67,0,0,0,30.3,38a.68.68,0,0,0-.14-.73,6.18,6.18,0,0,1-1.71-2.87H38.71A2.35,2.35,0,0,0,41.06,32V14A2.35,2.35,0,0,0,38.71,11.63Z"/></clipPath><clipPath id="clip-path-2" transform="translate(-3.94 -6.61)"><rect class="cls-1" x="-375.26" y="-668.99" width="1440" height="2804"/></clipPath><clipPath id="clip-path-3" transform="translate(-3.94 -6.61)"><path class="cls-1" d="M21,28.44a1.35,1.35,0,0,1-1.2-.74L17.5,23.09H15a1.34,1.34,0,0,1,0-2.68h3.34a1.35,1.35,0,0,1,1.2.74l1.48,3,4.15-8.31a1.34,1.34,0,0,1,2.31-.15l5,7.44h2.63a1.34,1.34,0,0,1,0,2.67H31.71a1.33,1.33,0,0,1-1.11-.59l-4.08-6.11L22.2,27.7A1.33,1.33,0,0,1,21,28.44Z"/></clipPath></defs><g class="cls-2"><g class="cls-3"><rect class="cls-4" width="42.11" height="36.78"/></g></g><g class="cls-5"><g class="cls-3"><rect class="cls-4" x="4.7" y="3.45" width="32.75" height="23.38"/></g></g></svg>