<svg xmlns="http://www.w3.org/2000/svg" width="114.077" height="81.477" viewBox="0 0 114.077 81.477">
  <path id="Icon_ionic-ios-tablet-landscape" data-name="Icon ionic-ios-tablet-landscape" d="M4.033,8.533a6.093,6.093,0,0,0-1.783,4.3v69.3a6.049,6.049,0,0,0,1.783,4.3h0a6.093,6.093,0,0,0,4.3,1.783h101.9a6.049,6.049,0,0,0,4.3-1.783h0a6.093,6.093,0,0,0,1.783-4.3v-69.3a6.049,6.049,0,0,0-1.783-4.3h0a6.093,6.093,0,0,0-4.3-1.783H8.337a6.093,6.093,0,0,0-4.3,1.783ZM6.5,47.6a1.783,1.783,0,1,1,1.783,1.783A1.8,1.8,0,0,1,6.5,47.6Zm107.3-.1a3.578,3.578,0,1,1-3.591-3.591A3.654,3.654,0,0,1,113.806,47.5Zm-9.678-36.676V84.177H14.475V10.825Z" transform="translate(-2.25 -6.75)" fill="#0b0249"/>
</svg>
